<svg width="108" height="108" viewBox="0 0 108 108" fill="none" xmlns="http://www.w3.org/2000/svg">
  <!-- 渐变定义 -->
  <defs>
    <linearGradient id="gradient1" x1="0%" y1="0%" x2="100%" y2="100%">
      <stop offset="0%" style="stop-color:#667eea;stop-opacity:1" />
      <stop offset="100%" style="stop-color:#764ba2;stop-opacity:1" />
    </linearGradient>
    <linearGradient id="gradient2" x1="0%" y1="0%" x2="100%" y2="100%">
      <stop offset="0%" style="stop-color:#f093fb;stop-opacity:1" />
      <stop offset="100%" style="stop-color:#f5576c;stop-opacity:1" />
    </linearGradient>
  </defs>
  
  <!-- 日记本主体 -->
  <rect x="18" y="15" width="72" height="78" rx="6" fill="white" stroke="#e0e0e0" stroke-width="1.5"/>
  
  <!-- 装订线 -->
  <line x1="36" y1="15" x2="36" y2="93" stroke="#ff6b6b" stroke-width="2" stroke-dasharray="3,3"/>
  
  <!-- 页面线条 -->
  <line x1="42" y1="30" x2="78" y2="30" stroke="#ddd" stroke-width="0.8"/>
  <line x1="42" y1="40" x2="75" y2="40" stroke="#ddd" stroke-width="0.8"/>
  <line x1="42" y1="50" x2="80" y2="50" stroke="#ddd" stroke-width="0.8"/>
  
  <!-- AI 智能图标 -->
  <circle cx="66" cy="65" r="12" fill="url(#gradient2)"/>
  
  <!-- 神经网络图案 -->
  <circle cx="62" cy="62" r="1.2" fill="white"/>
  <circle cx="70" cy="62" r="1.2" fill="white"/>
  <circle cx="62" cy="68" r="1.2" fill="white"/>
  <circle cx="70" cy="68" r="1.2" fill="white"/>
  <circle cx="66" cy="65" r="1.2" fill="white"/>
  
  <!-- 连接线 -->
  <line x1="62" y1="62" x2="66" y2="65" stroke="white" stroke-width="0.8"/>
  <line x1="70" y1="62" x2="66" y2="65" stroke="white" stroke-width="0.8"/>
  <line x1="62" y1="68" x2="66" y2="65" stroke="white" stroke-width="0.8"/>
  <line x1="70" y1="68" x2="66" y2="65" stroke="white" stroke-width="0.8"/>
  
  <!-- 笔的图标 -->
  <path d="M45 75 L48 78 L47 79 L44 76 Z" fill="#4a90e2"/>
  <line x1="48" y1="78" x2="51" y2="81" stroke="#4a90e2" stroke-width="1.5" stroke-linecap="round"/>
  
  <!-- 装饰性星星 -->
  <path d="M78 25 L79 28 L82 28 L80 30 L81 33 L78 31 L75 33 L76 30 L74 28 L77 28 Z" fill="#ffd700" opacity="0.8"/>
</svg>