<svg width="32" height="32" viewBox="0 0 32 32" fill="none" xmlns="http://www.w3.org/2000/svg">
  <!-- 渐变定义 -->
  <defs>
    <linearGradient id="gradient1" x1="0%" y1="0%" x2="100%" y2="100%">
      <stop offset="0%" style="stop-color:#667eea;stop-opacity:1" />
      <stop offset="100%" style="stop-color:#764ba2;stop-opacity:1" />
    </linearGradient>
    <linearGradient id="gradient2" x1="0%" y1="0%" x2="100%" y2="100%">
      <stop offset="0%" style="stop-color:#f093fb;stop-opacity:1" />
      <stop offset="100%" style="stop-color:#f5576c;stop-opacity:1" />
    </linearGradient>
  </defs>
  
  <!-- 日记本主体 -->
  <rect x="4" y="3" width="24" height="26" rx="2" fill="white" stroke="#e0e0e0" stroke-width="0.5"/>
  
  <!-- 装订线 -->
  <line x1="10" y1="3" x2="10" y2="29" stroke="#ff6b6b" stroke-width="1" stroke-dasharray="1,1"/>
  
  <!-- 页面线条 -->
  <line x1="12" y1="8" x2="24" y2="8" stroke="#ddd" stroke-width="0.3"/>
  <line x1="12" y1="12" x2="22" y2="12" stroke="#ddd" stroke-width="0.3"/>
  <line x1="12" y1="16" x2="25" y2="16" stroke="#ddd" stroke-width="0.3"/>
  
  <!-- AI 智能图标 -->
  <circle cx="20" cy="22" r="4" fill="url(#gradient2)"/>
  
  <!-- 神经网络图案 -->
  <circle cx="18.5" cy="20.5" r="0.4" fill="white"/>
  <circle cx="21.5" cy="20.5" r="0.4" fill="white"/>
  <circle cx="18.5" cy="23.5" r="0.4" fill="white"/>
  <circle cx="21.5" cy="23.5" r="0.4" fill="white"/>
  <circle cx="20" cy="22" r="0.4" fill="white"/>
  
  <!-- 连接线 -->
  <line x1="18.5" y1="20.5" x2="20" y2="22" stroke="white" stroke-width="0.3"/>
  <line x1="21.5" y1="20.5" x2="20" y2="22" stroke="white" stroke-width="0.3"/>
  <line x1="18.5" y1="23.5" x2="20" y2="22" stroke="white" stroke-width="0.3"/>
  <line x1="21.5" y1="23.5" x2="20" y2="22" stroke="white" stroke-width="0.3"/>
</svg>