<svg width="512" height="512" viewBox="0 0 512 512" xmlns="http://www.w3.org/2000/svg">
  <!-- 背景渐变 -->
  <defs>
    <linearGradient id="bgGradient" x1="0%" y1="0%" x2="100%" y2="100%">
      <stop offset="0%" style="stop-color:#667eea;stop-opacity:1" />
      <stop offset="100%" style="stop-color:#764ba2;stop-opacity:1" />
    </linearGradient>
    <linearGradient id="bookGradient" x1="0%" y1="0%" x2="100%" y2="100%">
      <stop offset="0%" style="stop-color:#ffffff;stop-opacity:1" />
      <stop offset="100%" style="stop-color:#f8f9fa;stop-opacity:1" />
    </linearGradient>
    <linearGradient id="aiGradient" x1="0%" y1="0%" x2="100%" y2="100%">
      <stop offset="0%" style="stop-color:#4facfe;stop-opacity:1" />
      <stop offset="100%" style="stop-color:#00f2fe;stop-opacity:1" />
    </linearGradient>
  </defs>
  
  <!-- 圆角背景 -->
  <rect width="512" height="512" rx="80" ry="80" fill="url(#bgGradient)"/>
  
  <!-- 日记本主体 -->
  <rect x="120" y="80" width="280" height="360" rx="20" ry="20" fill="url(#bookGradient)" stroke="#e9ecef" stroke-width="2"/>
  
  <!-- 日记本装订线 -->
  <line x1="160" y1="80" x2="160" y2="440" stroke="#dee2e6" stroke-width="3"/>
  
  <!-- 日记本页面线条 -->
  <line x1="180" y1="140" x2="360" y2="140" stroke="#ced4da" stroke-width="2" opacity="0.6"/>
  <line x1="180" y1="170" x2="340" y2="170" stroke="#ced4da" stroke-width="2" opacity="0.6"/>
  <line x1="180" y1="200" x2="350" y2="200" stroke="#ced4da" stroke-width="2" opacity="0.6"/>
  <line x1="180" y1="230" x2="320" y2="230" stroke="#ced4da" stroke-width="2" opacity="0.6"/>
  
  <!-- AI智能图标 -->
  <circle cx="320" cy="300" r="50" fill="url(#aiGradient)" opacity="0.9"/>
  
  <!-- AI图标内的神经网络图案 -->
  <g transform="translate(320,300)">
    <!-- 中心节点 -->
    <circle cx="0" cy="0" r="8" fill="white"/>
    
    <!-- 周围节点 -->
    <circle cx="-25" cy="-15" r="5" fill="white" opacity="0.8"/>
    <circle cx="25" cy="-15" r="5" fill="white" opacity="0.8"/>
    <circle cx="-25" cy="15" r="5" fill="white" opacity="0.8"/>
    <circle cx="25" cy="15" r="5" fill="white" opacity="0.8"/>
    
    <!-- 连接线 -->
    <line x1="0" y1="0" x2="-25" y2="-15" stroke="white" stroke-width="2" opacity="0.6"/>
    <line x1="0" y1="0" x2="25" y2="-15" stroke="white" stroke-width="2" opacity="0.6"/>
    <line x1="0" y1="0" x2="-25" y2="15" stroke="white" stroke-width="2" opacity="0.6"/>
    <line x1="0" y1="0" x2="25" y2="15" stroke="white" stroke-width="2" opacity="0.6"/>
  </g>
  
  <!-- 笔的图标 -->
  <g transform="translate(200,320) rotate(-30)">
    <rect x="0" y="-3" width="40" height="6" rx="3" fill="#ffd700"/>
    <polygon points="40,0 50,-2 50,2" fill="#ff6b6b"/>
    <circle cx="5" cy="0" r="2" fill="#ff9f43"/>
  </g>
  
  <!-- 装饰性星星 -->
  <g fill="white" opacity="0.3">
    <polygon points="100,150 102,156 108,156 103,160 105,166 100,162 95,166 97,160 92,156 98,156" />
    <polygon points="420,120 422,126 428,126 423,130 425,136 420,132 415,136 417,130 412,126 418,126" />
    <polygon points="380,400 382,406 388,406 383,410 385,416 380,412 375,416 377,410 372,406 378,406" />
  </g>
</svg>