<svg width="192" height="192" viewBox="0 0 192 192" fill="none" xmlns="http://www.w3.org/2000/svg">
  <!-- 背景圆形 -->
  <circle cx="96" cy="96" r="96" fill="url(#gradient1)"/>
  
  <!-- 渐变定义 -->
  <defs>
    <linearGradient id="gradient1" x1="0%" y1="0%" x2="100%" y2="100%">
      <stop offset="0%" style="stop-color:#667eea;stop-opacity:1" />
      <stop offset="100%" style="stop-color:#764ba2;stop-opacity:1" />
    </linearGradient>
    <linearGradient id="gradient2" x1="0%" y1="0%" x2="100%" y2="100%">
      <stop offset="0%" style="stop-color:#f093fb;stop-opacity:1" />
      <stop offset="100%" style="stop-color:#f5576c;stop-opacity:1" />
    </linearGradient>
  </defs>
  
  <!-- 日记本主体 -->
  <rect x="48" y="40" width="96" height="112" rx="8" fill="white" stroke="#e0e0e0" stroke-width="2"/>
  
  <!-- 装订线 -->
  <line x1="72" y1="40" x2="72" y2="152" stroke="#ff6b6b" stroke-width="3" stroke-dasharray="4,4"/>
  
  <!-- 页面线条 -->
  <line x1="80" y1="60" x2="130" y2="60" stroke="#ddd" stroke-width="1"/>
  <line x1="80" y1="75" x2="125" y2="75" stroke="#ddd" stroke-width="1"/>
  <line x1="80" y1="90" x2="135" y2="90" stroke="#ddd" stroke-width="1"/>
  
  <!-- AI 智能图标 -->
  <circle cx="110" cy="110" r="20" fill="url(#gradient2)"/>
  
  <!-- 神经网络图案 -->
  <circle cx="105" cy="105" r="2" fill="white"/>
  <circle cx="115" cy="105" r="2" fill="white"/>
  <circle cx="105" cy="115" r="2" fill="white"/>
  <circle cx="115" cy="115" r="2" fill="white"/>
  <circle cx="110" cy="110" r="2" fill="white"/>
  
  <!-- 连接线 -->
  <line x1="105" y1="105" x2="110" y2="110" stroke="white" stroke-width="1"/>
  <line x1="115" y1="105" x2="110" y2="110" stroke="white" stroke-width="1"/>
  <line x1="105" y1="115" x2="110" y2="110" stroke="white" stroke-width="1"/>
  <line x1="115" y1="115" x2="110" y2="110" stroke="white" stroke-width="1"/>
  
  <!-- 笔的图标 -->
  <path d="M85 125 L90 130 L88 132 L83 127 Z" fill="#4a90e2"/>
  <line x1="90" y1="130" x2="95" y2="135" stroke="#4a90e2" stroke-width="2" stroke-linecap="round"/>
  
  <!-- 装饰性星星 -->
  <path d="M130 50 L132 55 L137 55 L133 58 L135 63 L130 60 L125 63 L127 58 L123 55 L128 55 Z" fill="#ffd700" opacity="0.8"/>
  <path d="M60 130 L61 133 L64 133 L62 135 L63 138 L60 136 L57 138 L58 135 L56 133 L59 133 Z" fill="#ffd700" opacity="0.6"/>
</svg>